<?xml version="1.0" encoding="UTF-8"?>
<svg xmlns="http://www.w3.org/2000/svg" xmlns:xlink="http://www.w3.org/1999/xlink" width="32px" height="32px" viewBox="0 0 32 32" version="1.1">
<g id="surface1">
<path style=" stroke:none;fill-rule:evenodd;fill:rgb(80%,13.333333%,16.078431%);fill-opacity:1;" d="M 16 0 C 24.8125 0 32 7.1875 32 16 C 32 24.8125 24.8125 32 16 32 C 7.1875 32 0 24.8125 0 16 C 0 7.1875 7.1875 0 16 0 Z M 16 0 "/>
<path style=" stroke:none;fill-rule:evenodd;fill:rgb(100%,100%,100%);fill-opacity:1;" d="M 12.386719 14.855469 C 11.621094 15.210938 11.519531 16.53125 11.328125 17.285156 L 11.164062 17.917969 C 11.101562 18.109375 11.03125 18.308594 11 18.511719 C 10.929688 18.972656 10.941406 19.859375 11.53125 19.859375 L 11.691406 19.84375 C 11.863281 19.707031 11.949219 19.695312 12.039062 19.464844 C 12.117188 19.257812 12.105469 19 12.121094 18.757812 C 12.148438 18.558594 12.171875 18.359375 12.195312 18.15625 C 12.257812 17.757812 12.332031 17.363281 12.40625 16.96875 C 12.464844 16.644531 12.578125 16.335938 12.632812 16.007812 C 12.6875 15.675781 12.886719 14.933594 12.386719 14.855469 Z M 14.773438 13.082031 C 14.660156 13.117188 14.546875 13.132812 14.453125 13.203125 C 14.324219 13.296875 14.253906 13.445312 14.175781 13.570312 C 14.058594 13.753906 13.949219 13.9375 13.84375 14.125 C 13.8125 14.183594 13.769531 14.253906 13.714844 14.292969 C 13.617188 14.359375 13.492188 14.390625 13.425781 14.503906 C 13.300781 14.707031 13.261719 14.941406 13.214844 15.191406 C 13.144531 15.578125 13.082031 15.96875 13.046875 16.382812 C 13.023438 16.6875 12.996094 17.636719 13.148438 17.84375 C 13.222656 17.941406 13.367188 17.960938 13.492188 17.960938 C 13.554688 17.9375 13.664062 17.945312 13.738281 17.945312 C 13.847656 17.875 13.960938 17.828125 14.03125 17.707031 C 14.09375 17.59375 14.144531 17.476562 14.175781 17.355469 C 14.273438 16.960938 14.304688 16.539062 14.355469 16.132812 C 14.378906 15.9375 14.398438 15.742188 14.417969 15.546875 C 14.433594 15.476562 14.464844 15.355469 14.535156 15.320312 C 14.632812 15.277344 14.785156 15.351562 14.898438 15.351562 C 14.945312 15.332031 14.992188 15.3125 15.035156 15.289062 C 15.113281 15.25 15.179688 15.171875 15.226562 15.097656 C 15.269531 15 15.308594 14.902344 15.351562 14.804688 C 15.523438 14.300781 15.488281 13.804688 15.179688 13.382812 C 15.027344 13.171875 15.085938 13.128906 14.773438 13.082031 Z M 12.457031 11.75 C 12.378906 11.792969 12.289062 11.832031 12.242188 11.917969 C 12.171875 12.03125 12.144531 12.171875 12.132812 12.316406 C 12.105469 12.675781 12.15625 13.019531 12.515625 13.148438 C 12.746094 13.230469 12.933594 12.996094 13.019531 12.839844 C 13.027344 12.824219 13.058594 12.796875 13.027344 12.796875 C 13.109375 12.492188 13.046875 11.925781 12.734375 11.785156 C 12.660156 11.75 12.550781 11.75 12.457031 11.75 Z M 20.082031 11.234375 C 19.992188 11.28125 19.90625 11.328125 19.84375 11.417969 C 19.671875 11.675781 19.597656 12.007812 19.515625 12.3125 C 19.425781 12.648438 19.328125 12.992188 19.253906 13.332031 C 19.164062 13.746094 19.097656 14.160156 18.980469 14.554688 C 18.898438 14.835938 18.808594 15.480469 19.195312 15.574219 C 19.441406 15.632812 19.71875 15.488281 19.839844 15.292969 C 20 15.023438 20.015625 14.648438 20.070312 14.324219 C 20.125 14.003906 20.257812 13.703125 20.300781 13.386719 C 20.332031 13.140625 20.363281 12.898438 20.390625 12.652344 C 20.453125 12.347656 20.683594 12.109375 20.625 11.75 C 20.578125 11.441406 20.429688 11.246094 20.082031 11.234375 Z M 24.234375 9.195312 C 24.089844 9.257812 23.9375 9.265625 23.8125 9.375 C 23.558594 9.597656 23.335938 9.875 23.132812 10.136719 C 23.039062 10.25 22.945312 10.367188 22.851562 10.480469 C 22.804688 10.523438 22.71875 10.59375 22.648438 10.59375 C 22.628906 10.570312 22.59375 10.53125 22.59375 10.488281 C 22.566406 10.386719 22.570312 10.285156 22.511719 10.195312 C 22.324219 9.914062 21.929688 10.210938 21.820312 10.425781 C 21.726562 10.613281 21.695312 10.832031 21.621094 11.03125 L 21.179688 12.480469 C 21.15625 12.667969 21.132812 12.851562 21.105469 13.039062 C 21.050781 13.238281 20.972656 13.414062 20.9375 13.628906 C 20.894531 13.890625 20.800781 14.542969 21.03125 14.722656 C 21.109375 14.78125 21.191406 14.800781 21.292969 14.800781 C 21.664062 14.808594 21.847656 14.511719 21.949219 14.214844 C 22.191406 13.5 22.398438 12.777344 22.707031 12.097656 C 22.847656 11.785156 22.960938 11.558594 23.210938 11.300781 C 23.273438 11.234375 23.347656 11.148438 23.4375 11.125 C 23.59375 11.082031 23.65625 11.207031 23.65625 11.339844 C 23.652344 11.539062 23.59375 11.742188 23.5625 11.925781 C 23.515625 12.199219 23.46875 12.46875 23.421875 12.738281 C 23.382812 12.925781 23.304688 13.203125 23.3125 13.398438 C 23.316406 13.515625 23.359375 13.628906 23.425781 13.710938 C 23.5 13.804688 23.671875 13.871094 23.664062 14.019531 C 23.652344 14.261719 22.785156 14.738281 22.578125 14.816406 C 22.1875 14.964844 21.851562 15.242188 21.519531 15.5 C 21.355469 15.617188 21.191406 15.730469 21.027344 15.847656 C 20.777344 16.023438 20.5 16.179688 20.230469 16.320312 C 20.046875 16.4375 19.867188 16.558594 19.683594 16.675781 C 19.53125 16.765625 19.382812 16.851562 19.234375 16.941406 C 19.089844 17.039062 18.949219 17.140625 18.804688 17.238281 C 18.667969 17.328125 18.5625 17.464844 18.417969 17.542969 C 18.398438 17.554688 18.265625 17.59375 18.265625 17.554688 L 18.246094 17.554688 C 18.246094 17.355469 18.289062 17.167969 18.308594 16.984375 L 18.320312 16.433594 C 18.335938 16.257812 18.347656 16.082031 18.363281 15.902344 C 18.398438 15.480469 18.507812 15.070312 18.597656 14.675781 C 18.671875 14.335938 18.734375 13.980469 18.8125 13.648438 C 18.863281 13.4375 19.085938 12.546875 18.726562 12.488281 C 18.496094 12.449219 18.214844 12.601562 18.089844 12.78125 C 17.878906 13.082031 17.789062 13.441406 17.671875 13.789062 C 17.503906 14.273438 17.300781 14.792969 17.066406 15.242188 C 17.003906 15.367188 16.699219 16.007812 16.554688 16.007812 C 16.449219 15.828125 16.523438 15.503906 16.574219 15.316406 C 16.578125 15.300781 16.601562 15.265625 16.574219 15.265625 C 16.648438 15.078125 16.6875 14.820312 16.753906 14.625 C 16.839844 14.375 16.976562 14.121094 17.097656 13.886719 C 17.160156 13.777344 17.253906 13.625 17.347656 13.535156 C 17.417969 13.480469 17.488281 13.425781 17.558594 13.371094 C 17.71875 13.222656 17.832031 13.027344 17.878906 12.8125 C 17.945312 12.503906 17.863281 11.867188 17.5 11.828125 C 17.414062 11.820312 17.316406 11.859375 17.25 11.886719 C 16.78125 12.078125 16.617188 12.640625 16.425781 13.039062 C 16.039062 13.847656 15.710938 14.675781 15.53125 15.585938 C 15.445312 16.011719 15.441406 16.460938 15.402344 16.910156 C 15.359375 17.371094 15.34375 17.941406 15.675781 18.25 C 16.023438 18.578125 16.683594 17.972656 16.902344 17.707031 C 16.949219 17.652344 17.199219 17.269531 17.25 17.269531 L 17.25 17.25 L 17.269531 17.25 L 17.269531 17.289062 C 17.335938 17.476562 17.289062 17.742188 17.285156 17.945312 C 17.28125 18.21875 17.222656 18.613281 17.09375 18.820312 C 17.003906 18.964844 16.867188 19.050781 16.746094 19.160156 C 16.5 19.382812 16.230469 19.570312 15.996094 19.800781 C 15.785156 20.007812 15.644531 20.269531 15.410156 20.457031 C 15.234375 20.597656 15.003906 20.65625 14.808594 20.765625 C 14.6875 20.835938 14.601562 20.941406 14.496094 21.035156 C 14.425781 21.089844 14.355469 21.148438 14.285156 21.203125 C 14.035156 21.414062 13.964844 21.757812 13.699219 21.964844 L 13.425781 22.152344 C 13.054688 22.441406 12.695312 22.742188 12.324219 23.027344 C 12.03125 23.253906 11.738281 23.476562 11.460938 23.730469 C 11.230469 23.925781 11 24.121094 10.769531 24.316406 C 10.703125 24.375 10.636719 24.433594 10.570312 24.492188 C 10.398438 24.652344 10.226562 24.8125 10.050781 24.96875 C 9.84375 25.179688 9.652344 25.410156 9.410156 25.589844 C 9.226562 25.726562 9.003906 25.847656 8.863281 26.039062 C 8.816406 26.105469 8.761719 26.179688 8.726562 26.253906 C 8.644531 26.441406 8.546875 26.960938 8.703125 27.132812 C 9.085938 27.550781 10.085938 26.335938 10.359375 26.097656 C 10.796875 25.726562 11.175781 25.285156 11.59375 24.894531 C 12.355469 24.175781 13.105469 23.441406 13.832031 22.6875 C 13.988281 22.527344 14.183594 22.441406 14.363281 22.324219 C 14.546875 22.203125 14.695312 22.023438 14.835938 21.859375 C 14.90625 21.789062 14.972656 21.722656 15.039062 21.652344 C 15.285156 21.4375 15.53125 21.21875 15.773438 21 C 15.898438 20.910156 16.035156 20.855469 16.15625 20.757812 C 16.195312 20.703125 16.238281 20.652344 16.277344 20.597656 C 16.378906 20.472656 16.542969 20.292969 16.691406 20.234375 C 16.722656 20.222656 16.789062 20.222656 16.816406 20.242188 C 16.863281 20.273438 16.875 20.335938 16.882812 20.394531 C 16.871094 20.53125 16.859375 20.664062 16.84375 20.800781 C 16.816406 21.226562 16.792969 21.652344 16.765625 22.078125 C 16.773438 22.492188 16.742188 22.941406 16.734375 23.355469 L 16.734375 23.976562 C 16.730469 24.363281 16.75 24.78125 16.765625 25.167969 C 16.785156 25.546875 16.785156 25.929688 16.808594 26.304688 C 16.824219 26.523438 16.839844 26.742188 16.855469 26.960938 L 16.839844 27.546875 C 16.839844 27.914062 16.886719 28.710938 17.136719 28.917969 C 17.226562 28.988281 17.324219 29.011719 17.445312 29.003906 C 17.566406 28.996094 17.664062 28.96875 17.753906 28.914062 C 18.328125 28.558594 17.972656 27.398438 17.929688 26.835938 L 17.773438 25.609375 L 17.648438 24.191406 C 17.617188 23.878906 17.617188 23.554688 17.617188 23.234375 C 17.617188 22.410156 17.667969 21.558594 17.792969 20.785156 C 17.851562 20.394531 17.925781 19.910156 18.082031 19.566406 C 18.222656 19.25 18.511719 18.953125 18.792969 18.738281 C 18.917969 18.65625 19.046875 18.574219 19.171875 18.492188 C 19.421875 18.335938 19.664062 18.128906 19.875 17.917969 C 20.011719 17.78125 20.117188 17.628906 20.269531 17.507812 C 20.464844 17.351562 20.683594 17.261719 20.894531 17.132812 C 21.027344 17.050781 21.128906 16.910156 21.257812 16.824219 C 21.59375 16.589844 21.980469 16.414062 22.335938 16.210938 L 22.800781 15.898438 C 23.535156 15.453125 24.289062 15.035156 25.054688 14.644531 C 25.570312 14.382812 26.078125 14.121094 26.632812 13.9375 C 26.859375 13.84375 27.085938 13.75 27.308594 13.65625 C 27.425781 13.597656 27.558594 13.511719 27.695312 13.480469 C 27.917969 13.429688 28.175781 13.535156 28.363281 13.582031 C 28.453125 13.605469 28.574219 13.59375 28.671875 13.59375 L 28.894531 13.511719 C 29 13.46875 29.097656 13.382812 29.167969 13.292969 C 29.242188 13.207031 29.292969 13.082031 29.335938 12.976562 C 29.492188 12.570312 29.699219 12.082031 29.246094 11.742188 C 29.160156 11.675781 29.046875 11.617188 28.921875 11.609375 C 28.554688 11.59375 28.238281 11.792969 27.953125 11.933594 C 27.84375 11.972656 27.738281 12.011719 27.628906 12.046875 C 27.484375 12.109375 27.363281 12.234375 27.222656 12.304688 C 27.074219 12.371094 26.914062 12.410156 26.773438 12.488281 C 26.597656 12.578125 26.421875 12.667969 26.246094 12.757812 C 26.015625 12.875 25.707031 13.046875 25.429688 13.066406 C 25.296875 13.078125 25.089844 13.007812 24.992188 12.929688 C 24.8125 12.78125 24.632812 12.578125 24.582031 12.351562 C 24.507812 12.019531 24.601562 11.636719 24.652344 11.320312 L 24.703125 10.753906 C 24.71875 10.535156 24.761719 10.300781 24.769531 10.0625 C 24.777344 9.851562 24.785156 9.597656 24.679688 9.425781 C 24.582031 9.257812 24.4375 9.199219 24.234375 9.195312 Z M 21.3125 7.863281 C 21.234375 7.933594 21.148438 7.976562 21.097656 8.074219 C 21.039062 8.195312 21.046875 8.351562 21.042969 8.5 C 21.039062 8.578125 21.039062 8.652344 21.035156 8.730469 C 21.0625 9.023438 21.253906 9.167969 21.558594 9.113281 C 21.773438 9.074219 21.796875 8.820312 21.835938 8.644531 C 21.863281 8.515625 21.917969 8.351562 21.890625 8.203125 C 21.875 8.117188 21.824219 8.027344 21.757812 7.96875 C 21.636719 7.871094 21.488281 7.863281 21.3125 7.863281 Z M 15.398438 2.078125 C 15.28125 2.125 15.148438 2.175781 15.0625 2.277344 C 14.835938 2.539062 14.695312 2.855469 14.53125 3.152344 C 14.234375 3.683594 13.902344 4.207031 13.683594 4.773438 C 13.625 4.902344 13.566406 5.03125 13.503906 5.164062 L 13.359375 5.542969 C 13.277344 5.730469 13.238281 5.933594 13.160156 6.117188 C 13.082031 6.292969 12.941406 6.4375 12.851562 6.601562 L 12.5 7.296875 C 12.433594 7.449219 12.367188 7.597656 12.300781 7.75 C 12.207031 7.929688 12.089844 8.105469 12.003906 8.292969 C 11.832031 8.664062 11.710938 9.066406 11.570312 9.453125 L 11.257812 10.210938 L 10.914062 11.035156 C 10.589844 11.714844 10.347656 12.453125 10.074219 13.164062 L 9.875 13.71875 L 9.359375 15.191406 C 9.003906 16.226562 8.785156 17.316406 8.4375 18.355469 C 8.359375 18.59375 8.28125 18.835938 8.222656 19.082031 C 8.171875 19.292969 8.148438 19.554688 8.007812 19.71875 C 7.976562 19.753906 7.917969 19.785156 7.878906 19.75 C 7.785156 19.675781 7.75 18.316406 7.730469 18.066406 C 7.652344 17.089844 7.683594 16.03125 7.699219 15.050781 C 7.710938 14.226562 7.695312 13.375 7.683594 12.546875 L 7.664062 11.925781 C 7.664062 11.515625 7.679688 10.339844 7.234375 10.265625 C 6.757812 10.1875 6.421875 11.296875 6.300781 11.601562 C 6.164062 11.929688 6.125 12.3125 6.035156 12.667969 C 5.960938 12.957031 5.859375 13.230469 5.75 13.5 C 5.40625 14.355469 4.855469 15.105469 4.53125 15.972656 C 4.464844 16.152344 4.390625 16.347656 4.359375 16.542969 C 4.316406 16.789062 4.332031 17.320312 4.546875 17.460938 C 4.707031 17.5625 4.941406 17.53125 5.078125 17.40625 C 5.203125 17.289062 5.277344 16.964844 5.359375 16.796875 C 5.433594 16.640625 5.507812 16.484375 5.582031 16.328125 C 5.679688 16.125 5.8125 15.929688 5.90625 15.71875 C 6.019531 15.457031 6.0625 15.15625 6.171875 14.894531 C 6.21875 14.808594 6.269531 14.722656 6.316406 14.636719 C 6.382812 14.492188 6.449219 14.351562 6.519531 14.207031 C 6.527344 14.191406 6.550781 14.164062 6.578125 14.164062 L 6.578125 14.179688 C 6.636719 14.296875 6.652344 14.449219 6.671875 14.589844 C 6.699219 14.808594 6.730469 15.027344 6.738281 15.261719 C 6.777344 16.042969 6.792969 16.835938 6.792969 17.640625 C 6.792969 18.363281 6.832031 19.082031 6.921875 19.769531 L 7.035156 20.515625 C 7.101562 21.117188 7.101562 21.738281 7.160156 22.34375 C 7.210938 22.800781 7.257812 23.253906 7.304688 23.710938 C 7.335938 23.988281 7.308594 24.457031 7.46875 24.652344 C 7.582031 24.789062 7.75 24.777344 7.933594 24.777344 C 8.046875 24.695312 8.125 24.703125 8.222656 24.570312 C 8.390625 24.339844 8.351562 24.011719 8.359375 23.691406 C 8.371094 23.324219 8.382812 22.941406 8.417969 22.574219 C 8.480469 21.890625 8.578125 21.222656 8.722656 20.570312 C 8.777344 20.316406 8.878906 20.074219 8.9375 19.820312 C 8.960938 19.667969 8.988281 19.515625 9.015625 19.363281 C 9.023438 19.195312 9.015625 19.019531 9.042969 18.867188 C 9.097656 18.554688 9.242188 18.289062 9.351562 18.011719 C 9.386719 17.917969 9.386719 17.804688 9.398438 17.695312 C 9.421875 17.585938 9.449219 17.472656 9.472656 17.359375 C 9.589844 16.945312 9.703125 16.53125 9.820312 16.113281 C 9.828125 16.085938 9.898438 15.902344 9.875 15.902344 C 9.9375 15.765625 9.957031 15.605469 10.007812 15.460938 L 10.324219 14.394531 L 11.128906 11.855469 C 11.257812 11.472656 11.390625 11.089844 11.523438 10.707031 C 11.855469 9.964844 12.242188 9.226562 12.570312 8.476562 C 12.707031 8.160156 12.824219 7.824219 12.925781 7.484375 C 12.988281 7.273438 13.003906 7.082031 13.101562 6.886719 C 13.1875 6.703125 13.359375 6.582031 13.480469 6.417969 C 13.667969 6.15625 13.871094 5.90625 14.015625 5.621094 C 14.269531 5.125 14.398438 4.496094 14.953125 4.222656 C 15.011719 4.195312 15.0625 4.144531 15.132812 4.132812 C 15.335938 4.101562 15.417969 4.519531 15.515625 4.640625 C 15.554688 4.683594 15.609375 4.71875 15.664062 4.738281 C 15.757812 4.777344 15.863281 4.738281 15.96875 4.738281 C 16.0625 4.664062 16.144531 4.605469 16.191406 4.488281 C 16.378906 4 16.191406 2.722656 15.921875 2.347656 C 15.789062 2.167969 15.628906 2.089844 15.398438 2.078125 Z M 15.398438 2.078125 "/>
</g>
</svg>
