<?xml version="1.0" encoding="utf-8"?>
<!-- Generator: Adobe Illustrator 23.0.1, SVG Export Plug-In . SVG Version: 6.00 Build 0)  -->
<svg version="1.1" id="Layer_1" xmlns="http://www.w3.org/2000/svg" xmlns:xlink="http://www.w3.org/1999/xlink" x="0px" y="0px"
	 viewBox="0 0 1000 1000" style="enable-background:new 0 0 1000 1000;" xml:space="preserve" width="64" height="64">
<style type="text/css">
	.st0{fill:#086AAD;}
</style>
<path class="st0" d="M64.2,244.7c-88.3,127-77.4,292.3-9.9,427.6c1.6,3.2,3.3,6.4,4.9,9.6l3.1,6.1c0.6,1.2,1.3,2.3,2,3.5
	c1.2,2.2,2.3,4.2,3.5,6.3l6.5,11l3.7,6.1l7.5,11.7l3.2,4.9c3.5,5.2,7.1,10.5,10.8,15.6l2.1,2.9c3.2,4.4,6.5,8.8,9.9,13.1l3.7,4.7
	l9.1,11.2l3.5,4.2c4.2,4.9,8.4,9.8,12.7,14.5c0.4,0.5,0.6,0.6,0.7,0.8c4.2,4.6,8.5,9.1,12.9,13.6l4.2,4.2l10.3,10.1l4.2,4.1
	c4.6,4.4,9.3,8.7,14.1,12.9l15.5,13.1l5.3,4.2l10.7,8.4l5.7,4.4l12,8.6l5.6,4c3.8,2.7,7.7,5.2,11.7,7.7l5.1,3.4
	c6,3.8,12.1,7.6,18.3,11.2l5.1,3.1l13.7,7.7c2.5,1.3,5.1,2.6,7.6,3.9l9.8,5.1l2.3,1.1l4.1,1.9l15.5,7.2l3.3,1.5
	c6,2.6,12,5.1,18.1,7.5l4.4,1.7l17.1,6.3l2.2,0.7c6.3,2.2,12.7,4.3,19,6.2l4.6,1.4c6.2,2,13,4.4,19.7,5.6
	c427.4,77.9,551.6-256.9,551.6-256.9C870.7,848.3,685.6,884.2,509.8,844.3c-6.6-1.5-13.1-3.6-19.6-5.5l-4.9-1.5
	c-6.3-1.9-12.6-4-18.9-6.1l-2.6-0.9c-5.6-2-11.1-4-16.6-6.1l-4.7-1.9c-6-2.4-12-4.9-17.9-7.5l-3.6-1.6l-15.1-7.1l-4.4-2.1
	c-3.9-1.9-7.8-4-11.7-6.2l-7.8-4.1c-4.7-2.5-9.4-5.2-14-7.9l-4.7-2.7c-6.1-3.6-12.2-7.4-18.3-11.2c-1.7-1.1-3.3-2.2-4.9-3.3l-13-8.6
	c-1.4-0.9-3.1-2-4.2-2.9l-12.3-8.9l-5.5-4.1l-11.1-8.7l-4.9-4l-13.8-11.6c-0.5-0.4-1-0.9-1.6-1.2l-14.5-13.2l-4.1-3.9l-10.4-10.3
	l-4.1-4.1c-4.4-4.5-8.6-9-12.5-13.5c-0.2-0.2-0.4-0.4-0.6-0.7c-4.4-4.9-8.7-9.8-13-14.8l-3.1-4.1l-9.4-11.5l-3.1-4.3l-10.8-14.4
	c-97.9-132.7-133-316.2-55.1-466.7 M338.6,137.7c-63.9,92-60.5,215.4-10.6,312.4c8.4,16.4,17.8,32.1,28.3,47.2
	c9.6,13.7,20.2,30.1,32.9,41.1c4.6,5.1,9.4,10,14.4,14.9l3.7,3.7c4.8,4.7,9.7,9.2,14.6,13.6c0.2,0.2,0.4,0.4,0.6,0.5
	c5.7,5,11.4,9.4,17.3,14.3l3.9,3c5.9,4.5,11.8,8.9,17.9,13.1l0.5,0.4c2.7,1.9,5.4,3.6,8.2,5.4c1.3,0.8,2.6,1.7,3.9,2.6
	c4.4,2.8,8.8,5.5,13.3,8.1l1.9,1.1l11.7,6.2c1.4,0.8,3.1,1.4,4.2,2.2l8.2,4.2c0.4,0.2,0.8,0.4,1.2,0.6c5.6,2.8,11.3,5.5,17.1,8
	l3.7,1.6c4.6,2,9.3,3.9,14,5.7l6,2.2c4.3,1.6,8.6,3,12.9,4.5l5.8,1.9c6.1,1.9,12.5,4.4,18.6,5.4c330,54.7,406.2-199.8,406.2-199.8
	c-68.7,98.9-201.6,146.1-343.6,109.2c-6.3-1.7-12.5-3.5-18.7-5.4c-1.9-0.6-3.7-1.2-5.6-1.8l-13.1-4.5l-6.2-2.2
	c-4.7-1.8-9.4-3.7-14-5.7l-3.8-1.6c-5.8-2.5-11.6-5.2-17.2-8l-8.6-4.4l-5-2.6c-3.7-2-7.3-4-10.9-6.1l-2.6-1.5
	c-4.5-2.6-8.9-5.3-13.2-8.1c-1.3-0.8-2.7-1.8-4-2.7l-8.6-5.7c-6-4.2-12-8.5-17.8-13l-4.1-3.1c-62.4-49.1-111.4-116.1-134.8-192.1
	c-24.5-78.8-19.3-167.3,23.3-239.1 M569.3,57.7c-37.6,55.7-41.4,124.3-15.2,185.6c27.6,65,84.1,116,150,140.5l8.2,3.1l3.6,1.1
	l11.8,3.1c182.2,35.2,231.6-93.5,244.8-112.5c-43.3,62.3-116.1,77.3-205.3,55.6c-7.1-1.7-14.8-4.3-21.6-6.7
	c-8.7-3.1-17.3-6.6-25.7-10.6c-15.9-7.6-30.9-16.8-45-27.4C595.1,228.9,545.4,113,597.6,18.9"/>
</svg>
