<?xml version="1.0" encoding="UTF-8"?>
<svg xmlns="http://www.w3.org/2000/svg" xmlns:xlink="http://www.w3.org/1999/xlink" width="32px" height="32px" viewBox="0 0 32 32" version="1.1">
<g id="surface1">
<path style=" stroke:none;fill-rule:nonzero;fill:rgb(0%,0%,0%);fill-opacity:1;" d="M 0 16 L 0 32 L 32 32 L 32 0 L 0 0 Z M 8.070312 8.863281 C 8.644531 8.964844 9.09375 9.308594 9.324219 9.804688 C 9.5 10.179688 9.523438 10.722656 9.382812 11.105469 C 9.242188 11.480469 8.921875 11.820312 8.535156 12.007812 C 8.246094 12.152344 8.175781 12.167969 7.808594 12.167969 C 7.476562 12.160156 7.355469 12.144531 7.132812 12.039062 C 6.039062 11.527344 5.8125 10.082031 6.703125 9.277344 C 6.992188 9.015625 7.300781 8.882812 7.765625 8.8125 C 7.78125 8.808594 7.917969 8.832031 8.070312 8.863281 Z M 24.046875 8.914062 C 24.992188 9.195312 25.480469 10.304688 25.0625 11.195312 C 24.519531 12.351562 23 12.523438 22.214844 11.519531 C 21.921875 11.144531 21.800781 10.625 21.90625 10.179688 C 22.144531 9.179688 23.082031 8.628906 24.046875 8.914062 Z M 12.570312 13.078125 C 12.691406 13.113281 12.9375 13.234375 13.117188 13.339844 C 13.996094 13.851562 14.578125 14.078125 15.238281 14.148438 C 16.195312 14.257812 16.929688 14.070312 18.101562 13.421875 C 18.808594 13.035156 18.914062 12.996094 19.367188 12.996094 C 20.132812 12.984375 20.742188 13.417969 20.976562 14.132812 C 21.09375 14.5 21.058594 15.085938 20.894531 15.40625 C 20.769531 15.644531 20.472656 15.960938 20.234375 16.109375 C 19.777344 16.386719 19.089844 16.394531 18.570312 16.128906 C 18.398438 16.039062 18.015625 15.839844 17.714844 15.6875 C 16.875 15.246094 16.625 15.179688 15.828125 15.152344 C 15.261719 15.136719 15.09375 15.148438 14.769531 15.230469 C 14.328125 15.34375 13.839844 15.5625 13.179688 15.933594 C 12.5 16.324219 12.078125 16.410156 11.546875 16.265625 C 11.222656 16.179688 11.050781 16.085938 10.824219 15.867188 C 10.28125 15.339844 10.148438 14.582031 10.480469 13.910156 C 10.863281 13.148438 11.714844 12.804688 12.570312 13.078125 Z M 14.242188 17.394531 C 14.367188 17.464844 14.609375 17.652344 14.78125 17.808594 C 15.449219 18.390625 15.941406 18.375 16.667969 17.742188 C 17.125 17.34375 17.320312 17.261719 17.808594 17.261719 C 18.167969 17.261719 18.242188 17.277344 18.4375 17.390625 C 18.890625 17.660156 19.191406 18.15625 19.191406 18.648438 C 19.191406 18.941406 19.019531 19.363281 18.800781 19.601562 C 18.542969 19.875 18.203125 20.019531 17.785156 20.023438 C 17.371094 20.023438 17.066406 19.886719 16.617188 19.496094 C 16.242188 19.160156 16.003906 19.046875 15.691406 19.046875 C 15.375 19.046875 15.148438 19.160156 14.714844 19.523438 C 14.238281 19.929688 14.019531 20.023438 13.570312 20.023438 C 13.15625 20.023438 12.875 19.910156 12.589844 19.625 C 12.328125 19.363281 12.222656 19.125 12.199219 18.714844 C 12.171875 18.195312 12.363281 17.785156 12.777344 17.484375 C 13.050781 17.289062 13.246094 17.238281 13.667969 17.257812 C 13.953125 17.265625 14.066406 17.296875 14.242188 17.394531 Z M 16.386719 21.058594 C 17.660156 21.644531 17.65625 23.484375 16.382812 24.089844 C 16.15625 24.195312 16.050781 24.214844 15.691406 24.214844 C 15.300781 24.214844 15.230469 24.199219 14.941406 24.058594 C 14.589844 23.886719 14.304688 23.585938 14.128906 23.203125 C 13.972656 22.863281 13.980469 22.265625 14.148438 21.90625 C 14.355469 21.453125 14.691406 21.152344 15.179688 20.964844 C 15.460938 20.863281 16.0625 20.910156 16.386719 21.058594 Z M 16.386719 21.058594 "/>
</g>
</svg>
