<?xml version="1.0" encoding="UTF-8"?>
<svg xmlns="http://www.w3.org/2000/svg" xmlns:xlink="http://www.w3.org/1999/xlink" width="px" height="32px" viewBox="0 0 32 31" version="1.1">
<g id="surface1">
<path style=" stroke:none;fill-rule:nonzero;fill:rgb(90.980392%,12.941176%,15.294118%);fill-opacity:1;" d="M 15.976562 30.878906 L 20.425781 6.527344 C 24.671875 6.527344 26.007812 6.980469 26.203125 8.828125 C 26.203125 8.828125 29.050781 7.792969 30.484375 5.699219 C 24.882812 3.171875 19.253906 3.058594 19.253906 3.058594 L 15.96875 6.949219 L 15.976562 6.949219 L 12.691406 3.058594 C 12.691406 3.058594 7.0625 3.171875 1.460938 5.699219 C 2.894531 7.792969 5.742188 8.828125 5.742188 8.828125 C 5.9375 6.980469 7.273438 6.527344 11.488281 6.523438 L 15.976562 30.878906 "/>
<path style=" stroke:none;fill-rule:nonzero;fill:rgb(90.980392%,12.941176%,15.294118%);fill-opacity:1;" d="M 15.972656 1.9375 C 20.503906 1.902344 25.6875 2.617188 30.992188 4.867188 C 31.703125 3.625 31.886719 3.078125 31.886719 3.078125 C 26.085938 0.84375 20.652344 0.0820312 15.972656 0.0625 C 11.296875 0.0820312 5.863281 0.84375 0.0625 3.078125 C 0.0625 3.078125 0.320312 3.753906 0.953125 4.867188 C 6.257812 2.617188 11.445312 1.902344 15.972656 1.9375 "/>
</g>
</svg>
